<?xml version="1.0" standalone="no"?><!DOCTYPE svg PUBLIC "-//W3C//DTD SVG 1.1//EN" "http://www.w3.org/Graphics/SVG/1.1/DTD/svg11.dtd"><svg t="1704522934242" class="icon" viewBox="0 0 1612 1024" version="1.1" xmlns="http://www.w3.org/2000/svg" p-id="10612" xmlns:xlink="http://www.w3.org/1999/xlink" width="314.84375" height="200"><path d="M369.681627 1001.428553C273.681115 1001.428553 191.11051 966.000347 121.967323 895.142839 44.824064 816.28533 4.253038 710.286409 0.253001 577.142857-3.17557 447.999342 29.395529 334.28619 97.967323 235.999963 177.967689 119.999415 289.3952 61.999982 432.253001 61.999982 546.539301 61.999982 633.10987 114.285202 691.967342 218.857179 738.824704 303.428974 761.395931 405.142235 759.681609 523.999963 757.967287 650.857765 724.824795 759.1424 660.253038 848.857161 587.109815 950.571959 490.253605 1001.428553 369.681627 1001.428553L369.681627 1001.428553ZM421.110199 235.999963C337.109723 235.428571 271.681829 275.428133 224.824466 356.000037 187.681426 420.571721 169.110162 494.285312 169.110162 577.142857 169.110162 660.000402 191.68139 724.571209 236.82443 770.857106 274.538935 809.143077 318.824229 828.285733 369.681627 828.285733 429.110491 828.285733 480.252782 806.571666 523.110181 763.142875 571.681865 715.142583 597.395895 650.286153 600.253001 568.571465 608.253074 347.427474 548.539392 236.571429 421.110199 235.999963L421.110199 235.999963ZM1595.916215 317.42859C1591.916178 388.85749 1563.345042 424.571465 1510.201929 424.571465 1461.058853 424.571465 1436.48768 396.286025 1436.48768 339.714267 1436.48768 328.857088 1435.630519 308.857271 1433.916197 279.714304L1431.344786 207.714304C1341.058633 218.571483 1268.773669 243.999817 1214.487625 283.999963 1163.630226 321.143077 1121.344951 377.142491 1087.630482 452.000037L1089.344805 921.714249C1089.344805 979.428864 1061.059365 1008.285696 1004.48768 1008.285696 954.201673 1008.285696 929.059109 979.428864 929.059109 921.714249L929.059109 320C929.059109 301.142747 929.773349 272.857307 931.201975 235.142875 932.630528 197.42837 933.344768 169.14293 933.344768 150.285751 933.344768 92.571136 958.487406 63.714304 1008.773339 63.714304 1064.773632 63.714304 1093.059072 111.1424 1093.630537 205.999982 1203.345335 100.285221 1325.058414 47.428608 1458.773358 47.428608 1505.059328 47.428608 1539.630373 64.856942 1562.487662 99.714267 1585.344951 134.571593 1596.773376 187.14251 1596.773376 257.428553 1596.773376 287.142985 1596.48768 307.142802 1595.916215 317.42859L1595.916215 317.42859Z" p-id="10613"></path></svg>