<svg width="30" height="30" viewBox="0 -7 30 30" fill="none" xmlns="http://www.w3.org/2000/svg">
<path d="M4.59016 19.9765H2.98252L1.94323 19.1296C1.7646 18.983 1.62657 18.8771 1.53726 18.7957C1.43983 18.7143 1.36675 18.6491 1.30992 18.5921C1.30992 18.6654 1.31804 18.7387 1.31804 18.8201C1.31804 18.9016 1.32616 18.9749 1.32616 19.0563V19.9765H0.254395V16.7598H1.32616V17.5008C1.32616 17.5986 1.32616 17.6963 1.31804 17.794C1.31804 17.8917 1.30992 17.9813 1.3018 18.0628C1.36676 18.0058 1.45607 17.9325 1.5535 17.851C1.65093 17.7696 1.78084 17.6637 1.93511 17.5416L2.92568 16.7598H4.46837L3.15302 17.68C3.03935 17.7614 2.94192 17.8266 2.85261 17.8917C2.7633 17.9487 2.69022 18.0058 2.61715 18.0465C2.55219 18.0953 2.48723 18.1279 2.4304 18.1686C2.37356 18.2012 2.31673 18.2338 2.25989 18.2664C2.35732 18.3315 2.47912 18.4129 2.61715 18.5025C2.75518 18.6002 2.94192 18.7305 3.16114 18.9016L4.59016 19.9765Z" fill="currentColor"/>
<path d="M9.53508 18.5677C9.53508 19.5368 8.82057 20.0254 7.39156 20.0254C6.97747 20.0254 6.62021 19.9928 6.32791 19.9358C6.0275 19.8788 5.78391 19.7811 5.58904 19.6589C5.39418 19.5368 5.25615 19.382 5.16684 19.2029C5.07752 19.0237 5.02881 18.812 5.02881 18.5677V16.7598H6.08433V18.5677C6.08433 18.6898 6.10057 18.7876 6.13305 18.869C6.16553 18.9504 6.23048 19.0156 6.32791 19.0644C6.42535 19.1133 6.55526 19.1459 6.72576 19.1703C6.89627 19.1947 7.1155 19.2029 7.39156 19.2029C7.59454 19.2029 7.76505 19.1947 7.90308 19.1703C8.04111 19.1459 8.14666 19.1133 8.23598 19.0563C8.31717 19.0074 8.37401 18.9423 8.4146 18.8608C8.44708 18.7794 8.47144 18.6817 8.47144 18.5758V16.7679H9.5432V18.5677H9.53508Z" fill="currentColor"/>
<path d="M13.7409 20.0254C13.6759 20.0254 13.6028 20.0173 13.5379 19.9929C13.4729 19.9684 13.3998 19.9277 13.3187 19.8544L11.2157 18.0872V19.9766H10.2495V17.3136C10.2495 17.2077 10.2657 17.1181 10.2982 17.0367C10.3307 16.9634 10.3713 16.8982 10.4281 16.8494C10.485 16.8005 10.5418 16.7679 10.6149 16.7435C10.688 16.7191 10.761 16.7109 10.8341 16.7109C10.8991 16.7109 10.964 16.7191 11.029 16.7435C11.0939 16.7679 11.1751 16.8087 11.2563 16.882L13.3593 18.6491V16.7598H14.3255V19.4228C14.3255 19.5287 14.3092 19.6182 14.2767 19.6997C14.2443 19.773 14.2037 19.8381 14.1468 19.887C14.09 19.9359 14.0332 19.9766 13.9601 19.9929C13.887 20.0173 13.8139 20.0254 13.7409 20.0254Z" fill="currentColor"/>
<path d="M18.7991 19.146L18.1089 19.9685H15.0723V16.7517H16.1359V19.1378H18.7991V19.146Z" fill="currentColor"/>
<path d="M23.7441 18.5677C23.7441 19.5368 23.0296 20.0254 21.6005 20.0254C21.1865 20.0254 20.8292 19.9928 20.5369 19.9358C20.2365 19.8788 19.9929 19.7811 19.798 19.6589C19.6032 19.5368 19.4651 19.382 19.3758 19.2029C19.2865 19.0237 19.2378 18.812 19.2378 18.5677V16.7598H20.2933V18.5677C20.2933 18.6898 20.3096 18.7876 20.342 18.869C20.3745 18.9504 20.4395 19.0156 20.5369 19.0644C20.6343 19.1133 20.7642 19.1459 20.9347 19.1703C21.1053 19.1947 21.3245 19.2029 21.6005 19.2029C21.8035 19.2029 21.974 19.1947 22.1121 19.1703C22.2501 19.1459 22.3556 19.1133 22.445 19.0563C22.5262 19.0074 22.583 18.9423 22.6236 18.8608C22.6561 18.7794 22.6804 18.6817 22.6804 18.5758V16.7679H23.7522V18.5677H23.7441Z" fill="currentColor"/>
<path d="M27.9498 20.0254C27.8849 20.0254 27.8118 20.0173 27.7469 19.9929C27.6819 19.9684 27.6088 19.9277 27.5276 19.8544L25.4247 18.0872V19.9766H24.4585V17.3136C24.4585 17.2077 24.4747 17.1181 24.5072 17.0367C24.5397 16.9634 24.5803 16.8982 24.6371 16.8494C24.694 16.8005 24.7508 16.7679 24.8239 16.7435C24.8969 16.7191 24.97 16.7109 25.0431 16.7109C25.1081 16.7109 25.173 16.7191 25.238 16.7435C25.3029 16.7679 25.3841 16.8087 25.4653 16.882L27.5682 18.6491V16.7598H28.5344V19.4228C28.5344 19.5287 28.5182 19.6182 28.4857 19.6997C28.4532 19.773 28.4126 19.8381 28.3558 19.887C28.299 19.9359 28.2421 19.9766 28.1691 19.9929C28.1041 20.0173 28.031 20.0254 27.9498 20.0254Z" fill="currentColor"/>
<path d="M8.04925 14.7646V10.6113L0.416992 14.7564V8.59161H1.85413V12.3377L9.48638 8.19257V12.3296L17.6708 7.80981V12.4599L27.9256 8.16814L28.4777 9.49556L16.2336 14.6261V10.2448L8.04925 14.7646Z" fill="currentColor"/>
<path d="M12.8722 7.50845H0.416992V0.781738H12.8722V7.50845ZM1.85413 6.06701H11.435V2.22318H1.85413V6.06701Z" fill="currentColor"/>
<path d="M9.76227 3.42847H3.53467V4.86991H9.76227V3.42847Z" fill="currentColor"/>
<path d="M28.9646 7.5085L22.12 2.28838L15.462 7.36191L14.5933 6.21365L22.12 0.480469L29.8334 6.36024L28.9646 7.5085Z" fill="currentColor"/>
</svg>
